<?xml version="1.0" encoding="utf-8"?>
<!-- Generator: Adobe Illustrator 19.2.1, SVG Export Plug-In . SVG Version: 6.00 Build 0)  -->
<!DOCTYPE svg PUBLIC "-//W3C//DTD SVG 1.1//EN" "http://www.w3.org/Graphics/SVG/1.1/DTD/svg11.dtd">
<svg version="1.1" id="Layer_1" xmlns="http://www.w3.org/2000/svg" xmlns:xlink="http://www.w3.org/1999/xlink" x="0px" y="0px"
	 viewBox="0 0 2523 396" style="enable-background:new 0 0 2523 396;" xml:space="preserve">
<style type="text/css">
	.st0{fill:#FFFFFF;}
	.st1{fill:#F26638;}
</style>
<path class="st0" d="M395.8,184.5c-1.9-30.4-11.3-60.3-26.7-86.6c-16.4-27.9-39.7-51.7-67.3-68.7C273.5,11.6,240.7,1.7,207.5,0h-19
	c-35.6,1.8-70.7,13.2-100.3,33.1c-34.8,23.2-62,57.5-76.3,96.8c-7,18.7-10.7,38.6-11.9,58.5v19.1c1.5,28.5,9,56.8,22.3,82.1
	c16.2,30.9,40.6,57.4,70.1,76c28.7,18.2,62.2,28.6,96.1,30.4h19.1c48.4-2.3,95.8-22.9,130-57.4c18.3-17.9,32.9-39.6,43-63.1
	C392.8,247,398,215.5,395.8,184.5z M368.9,254.7c-14.8,45-48.3,83.3-90.7,104.3c-31,15.6-66.7,21.7-101.2,17.5
	c-33.7-3.8-66.1-17.7-92.4-39.2c-27.1-22-47.7-52.1-58.2-85.5c-10.8-34.2-11-71.6-0.6-105.9C37.5,107.3,62.7,72.9,96,50
	c25.8-17.9,56.3-28.8,87.5-31.3c31.9-2.6,64.4,3.4,93.1,17.5C297.5,46.4,316.4,60.7,332,78c23.8,26.3,39.5,59.8,44.4,94.9
	C379.8,200.3,378,228.6,368.9,254.7z"/>
<path class="st0" d="M167.8,41c-0.3-3.8,2.6-7.2,6.3-7.7c3.3-0.7,6.8,1.1,8.4,4.1c10.1,20.6,19.8,41.5,30.2,62
	c0.2-19.5-0.1-39,0.1-58.4c-0.1-4.4,3.9-8.1,8.2-7.8c4.1,0,7.8,3.6,7.5,7.7c0,31.3,0,62.6,0,93.9c0.4,7.4-10.8,10.3-14.3,3.9
	c-10.2-21-20.5-42-30.7-63.1c-0.4,19.7,0,39.5-0.2,59.2c0.2,5.5-6.5,9.1-11.2,6.7c-3-1.3-4.7-4.6-4.4-7.8
	C167.8,103,167.7,72,167.8,41z"/>
<path class="st0" d="M488,117.9c5.2-5.9,15.9-4.5,19.4,2.7c13.2,27.2,26.4,54.4,39.5,81.7c2.4,4.4,3.9,9.4,7.2,13.3
	c0.5-27.5,0.1-55,0.2-82.5c0.2-4.6-1-9.7,2-13.7c3.9-6.2,13.9-6.8,18.8-1.4c2.2,2.4,3.3,5.7,3.3,9c0,46.4,0,92.7,0,139.1
	c0.2,4.2-0.3,8.7-3.3,11.9c-5,5.9-16.1,4.9-19.3-2.4c-12.8-27.1-26.2-53.9-39.3-80.9c-2.5-5-4.6-10.3-7.6-15.1
	c-0.4,30.5,0,61-0.2,91.5c0,7.3-8.2,12.4-15,10.3c-5.2-1.1-8.8-6.2-8.8-11.4c-0.1-46,0.1-92,0-138
	C484.8,127.2,484.3,121.7,488,117.9z"/>
<path class="st0" d="M816.4,114.6c7.2-2.1,15.2,3.8,15,11.4c0,35.3,0,70.7,0,106c0.1,3.7-0.2,7.3,0.3,11c1.1,6.9,6.5,12.8,13.3,14.3
	c11.1,3,22.7-7,21.8-18.3c0-37.7,0-75.4,0-113c-0.1-5.7,4.5-11,10.1-11.6c6.9-1.3,14,4.5,13.7,11.5c0.1,38,0,76,0,114.1
	c0.2,11-4.3,21.9-12.2,29.5c-9.3,9.6-23.6,14-36.7,11.6c-13.7-2.3-26-12-31.2-24.9c-2.6-6.1-3.3-12.7-3.2-19.2
	c0.1-36.9-0.1-73.9,0.1-110.8C807.3,120.8,811.2,115.8,816.4,114.6z"/>
<path class="st0" d="M1150.5,126c-0.4-6.7,6.1-12.4,12.6-11.8c6.1,0,11.5,5.6,11.2,11.7c0,43.6,0,87.2,0,130.8c12.6,0,25.1,0,37.7,0
	c4.9-0.1,9.6,3.1,11.2,7.8c1.2,4.2,0.6,9.1-2.4,12.4c-2.7,3.1-7,4-10.9,3.9c-15.7,0-31.4,0-47.1,0c-4.8,0.2-9.8-2.6-11.6-7.1
	c-1.3-3-0.8-6.4-0.9-9.6C1150.6,218,1150.5,172,1150.5,126z"/>
<path class="st0" d="M1271.2,129.1c-2.1-7.2,4.4-15.1,11.8-14.8c5.5-0.3,10.3,3.9,11.5,9.1c7.5,31.7,15.4,63.3,23.2,94.9
	c7.5-31.8,15.4-63.5,23.1-95.3c1.7-8.1,12.4-11,18.7-6.4c2.5,1.7,3.8,4.6,4.5,7.5c7.5,31.4,15.2,62.7,23,94
	c5-19.7,9.4-39.6,14.4-59.3c3.1-11.9,5.7-24,8.8-36c1.6-6.7,9.5-10.6,15.8-7.8c5.4,2,8.9,8.3,7.2,13.9
	c-11.6,48.1-23.2,96.2-34.9,144.3c-1.6,8.4-13.2,11.1-19.3,5.8c-2.4-1.9-3.5-4.9-4.2-7.8c-5.5-23.8-11.6-47.4-17.3-71.1
	c-1.8-7.4-3.3-14.8-5.4-22.1c-5.3,22.9-11.1,45.7-16.7,68.5c-2.5,9.3-4.1,18.9-6.9,28.1c-2.7,7.9-14.3,9.5-19.7,3.5
	c-3-3-3.3-7.4-4.3-11.2C1293.4,221,1282.4,175,1271.2,129.1z"/>
<path class="st0" d="M1932.5,114.8c16.4-3,34.5,5.6,41.8,20.7c2.3,5.6-3.2,12.5-9.3,11.1c-3.9-0.2-5.8-4-7.8-6.7
	c-5.5-7.7-16.3-10.5-25.1-7.6c-7.1,2.4-13.2,8.3-14.8,15.7c-2.1,7.7,0.3,16.2,5.9,21.8c13,13.4,26,26.7,38.9,40.1
	c6.3,5.8,11.1,13.4,12.9,21.9c3.9,15.7-3.1,33.4-16.5,42.4c-9,6.3-20.6,8.8-31.4,6.6c-10.2-2-19.6-7.9-25.6-16.5
	c-2.4-3-4.2-7.4-2.1-11.1c2-4.6,8.4-6.2,12.5-3.3c2.5,2.3,3.8,5.5,6.3,7.8c6.4,6.4,16.6,8.5,25.1,5.5c7.5-2.9,13.9-9.3,15.3-17.4
	c1.9-7.3-0.3-15.5-5.4-20.9c-13-13.4-26-26.8-39.1-40.1c-5.2-4.9-9.9-10.7-12.2-17.6c-5.4-14.7-0.8-32.2,10.8-42.6
	C1918.2,119.6,1925.1,116.1,1932.5,114.8z"/>
<path class="st0" d="M2408.4,114.6c3.2-0.8,7.2-0.1,9.3,2.8c2.3,3,1.6,7.1,1.7,10.6c0,46.6,0,93.3,0,140c-0.1,4,0.6,8.8-2.7,11.7
	c-4.8,4.5-14.2,1.2-14.1-5.6c-0.1-49,0-98-0.1-147c0-2.5-0.2-5,0.4-7.4C2403.8,117.2,2405.9,115.3,2408.4,114.6z"/>
<path class="st0" d="M2479.5,114.7c14.1-2.2,29.3,3.6,37.7,15.2c2.1,2.9,4.8,6.3,3.8,10.2c-0.8,4.1-4.9,7.2-9.1,6.6
	c-4,0.1-6.1-3.8-8.1-6.6c-3.8-5.4-10.2-8.4-16.7-8.8c-6.9-0.7-13.7,2.5-18.4,7.4c-5.7,6-6.8,15.2-4.3,22.8c1.9,5.9,6.9,9.8,11,14.2
	c8.7,9.2,17.6,18.3,26.6,27.4c6,6.4,13,12.2,16.6,20.4c2.5,5.5,3.8,11.4,3.4,17.5c1.1,16.9-11,32.9-26.8,38.3
	c-15,5.7-33.1,1.2-43.8-10.7c-3.1-3.5-7-7.5-6.2-12.7c0.3-5.2,6.6-8.8,11.4-6.7c3.8,1.5,5.1,5.8,7.9,8.4c8.4,9.1,24.2,9.6,33.1,0.9
	c10.5-8.5,10.7-25.9,0.8-35c-14.2-14.4-28.4-28.9-42.5-43.5c-11.7-12.5-12.8-32.8-3.8-47C2458.1,123.4,2468.3,116.4,2479.5,114.7z"
	/>
<path class="st0" d="M707.4,116.4c2.7-1.3,5.7-1.1,8.7-1.2c19.3,0,38.6,0,57.9,0c3.1,0,6.3,0.1,9.1,1.6c6.6,3.4,7.9,13.7,2.6,18.8
	c-2.2,2.4-5.5,3.6-8.7,3.6c-6.8,0.1-13.6-0.2-20.4,0.2c0.2,42.2,0,84.4,0.1,126.6c0,3.6,0.4,7.6-2,10.7c-3.7,5.8-12.5,6.7-17.7,2.3
	c-3.3-2.6-4.5-7-4.4-11c0-42.9,0-85.9,0-128.8c-6.9-0.1-13.8,0.1-20.7,0c-4.9,0-9.6-3.6-10.8-8.4
	C699.3,125.3,702.1,118.8,707.4,116.4z"/>
<path class="st0" d="M1662.7,119.6c3.9-6.4,14.3-7.1,19.1-1.3c2.2,2.3,3.2,5.5,3,8.7c0,43.3,0,86.5,0,129.8c12.8,0,25.5-0.1,38.3,0
	c6.2,0.2,11.5,6,11.2,12.2c0.1,6-5,11.6-11.1,11.7c-15.4,0.2-30.7,0-46.1,0.1c-3.4,0-7.2,0.3-10.3-1.5c-3.9-2.2-6.4-6.8-6.2-11.3
	c0-45,0-90,0-135C1660.7,128.5,1659.8,123.5,1662.7,119.6z"/>
<path class="st0" d="M2110.5,121.6c0.7-3.9,4.7-6.5,8.5-6.2c16.7,0,33.4,0,50.1,0c2.4,0,5,0.1,7,1.6c5.2,4.2,3.2,14.6-4,15.1
	c-15,0.5-30,0-45.1,0.2c-0.4,12.2,0,24.4-0.2,36.6c0,6-0.2,11.9,0.4,17.9c12.6,0,25.2-0.1,37.8,0c3.6-0.1,7.2,2,8.4,5.5
	c0.6,3.3,0.5,7.3-2.4,9.6c-3.7,2.9-8.7,1.6-13,1.9c-10.3,0.2-20.7-0.5-30.9,0.3c-1,23.6,0.6,47.2-0.5,70.8
	c-1.5,6.2-10.6,7.6-14.5,2.9c-2-2.1-1.9-5.2-1.9-7.9c0.1-46,0-92,0-138C2110.3,128.5,2110,125,2110.5,121.6z"/>
<path class="st0" d="M2352,206c9.3-4,17.2-11.5,21.1-20.9c3-7,3.5-14.7,3.3-22.2c0.1-7.9,0-16-3.2-23.3c-5.6-14.1-20-24.1-35.2-24.3
	c-10.7,0-21.3,0-32,0c-3.6-0.2-7.5,1.9-8.4,5.5c-0.8,4.4-0.9,8.8-0.6,13.1c0.5,6.4-0.5,12.7,0,19c0.5,6.7-0.8,13.4,0,20.1
	c0.6,6.7-0.4,13.3-0.2,20c0.7,5.9,0.2,11.9,0,17.9c0.7,11.7,0,23.3,0.3,35c0.2,5-0.8,10-0.2,15c0.8,5.5-1.5,11.5,1.2,16.7
	c3.2,6.3,14.9,4.8,15.4-2.7c0.2-21.9,0-43.9,0.1-65.8c7.1-0.1,14.2,0,21.3,0c8.1,21.9,16.2,43.7,24.3,65.6c1.1,3.4,3.9,6.8,7.7,6.9
	c5.4,0.6,10.9-5,9.1-10.4C2368.1,249.4,2359.8,227.8,2352,206z M2313.8,192.3c-0.1-20.1,0-40-0.1-59.9c7.8-0.3,15.5-0.1,23.3-0.1
	c10.2-0.1,19.7,7.8,21.8,17.8c1.2,5.6,0.5,11.3,0.7,16.9c0.3,7-2.1,14.4-7.4,19.2c-4.3,4-10.2,6-16,6.1
	C2328.7,192.3,2321.2,192.3,2313.8,192.3z"/>
<path class="st0" d="M1003.8,265.4c-7.2-19.1-14.2-38.3-21.4-57.4c10.3-5.6,18.3-15.4,21-26.8c1.6-5.9,1-12.1,1.1-18.1
	c0-5.4,0.4-10.8-1-16c-3.1-13-12.8-24.3-25.4-29c-10.9-4.3-22.8-2.5-34.1-2.9c-5.5,0.4-11.4-1-16.5,1.5c-4.2,2-6.5,6.7-6.5,11.4
	c0,47.4-0.1,94.7,0,142.1c-0.1,6.8,6.3,12.5,12.9,11.7c6.1-0.1,11.1-5.6,11.1-11.6c0-19.2,0-38.5,0-57.7c4.4,0,8.7,0,13.1,0
	c6.7,18,13.4,35.9,20.1,53.8c1.6,4,2.6,8.5,5.6,11.8c4.6,5,13.4,4.9,17.8-0.3C1004.9,274.6,1005.3,269.5,1003.8,265.4z M980.3,172.7
	c-0.7,8.3-8.1,15.4-16.4,15.8c-6.3,0.2-12.5,0-18.8,0.1c0.1-16.5,0.1-32.9,0.1-49.4c6.5,0.1,13.1-0.3,19.6,0.2
	c8.3,0.7,15.3,8.2,15.6,16.5C980.6,161.5,980.7,167.1,980.3,172.7z"/>
<path class="st0" d="M1527,135.8c-8.6-16.3-28.8-24.8-46.6-20.2c-17.8,4.1-31.3,21.1-31.7,39.4c-0.2,28.1,0,56.1-0.1,84.1
	c0,9.6,3,19.5,9.2,27c7.2,9.2,18.5,15,30.1,15.6c14.2,1.1,28.9-5.9,36.9-17.8c4.7-7,7.4-15.4,7.3-23.8c0-26,0-52.1,0-78.1
	C1532.6,153,1531.6,143.7,1527,135.8z M1508.3,240.1c0.2,8.9-7.3,17.2-16.2,17.7c-6.7,0.7-13.6-2.9-16.8-8.8
	c-2.5-4.2-2.7-9.2-2.5-13.9c0-23.7,0-47.3,0-71c0.1-4.1-0.3-8.2,0.7-12.2c1.2-5.6,5.4-10.4,10.8-12.4c4.6-1.8,10-1.5,14.3,0.9
	c6,3.1,9.9,9.8,9.7,16.6C1508.2,184.7,1508.3,212.4,1508.3,240.1z"/>
<path class="st0" d="M1637.8,267.1c-6.9-19.9-15-39.4-21.7-59.4c9.2-4.8,16.5-13.1,19.7-23c3.3-8.9,1.9-18.5,2.2-27.7
	c0.2-13-6.2-25.7-16.6-33.4c-7.5-5.7-17-8.5-26.4-8.3c-9.6,0.1-19.3,0-29,0.1c-6.5-0.1-11.7,6.2-11.4,12.5c0,47.1,0,94.1,0,141.1
	c-0.4,6.4,4.8,12.7,11.4,12.7c6.6,0.7,12.9-5,12.7-11.7c0-19.1,0-38.3,0-57.4c4.4-0.1,8.8-0.1,13.2,0c7.4,20.4,15,40.6,22.7,60.9
	c1.8,5.5,7.7,9.2,13.4,8.1C1634.7,280.9,1639.9,273.6,1637.8,267.1z M1613,177.1c-2.5,6.8-9.6,11.8-16.9,11.5c-5.8,0-11.6,0-17.3,0
	c-0.1-16.4-0.1-32.8-0.1-49.1c6.5,0,13-0.2,19.5,0c8.8,0.6,15.9,8.7,16,17.4C1614.3,163.6,1615,170.6,1613,177.1z"/>
<path class="st0" d="M1832,142c-5.8-15.8-22.1-26.9-38.9-26.6c-10.9,0.2-21.9-0.4-32.7,0.3c-5.1,1.1-9.2,6-9,11.2
	c0,47.3,0,94.7,0,142.1c-0.4,6.1,4.8,11.4,10.8,11.7c9.6,0.2,19.2,0,28.8,0.1c6.4,0.1,12.8-0.9,18.6-3.4
	c11.6-4.9,20.6-15.4,23.7-27.5c1.9-6.8,1.4-13.9,1.5-20.9c0-18.6,0-37.3,0-56C1834.5,162.6,1836,151.8,1832,142z M1810.7,162
	c0,25.7,0,51.3,0,77c0.4,9.1-7.5,17.4-16.5,17.7c-6.3,0.2-12.5,0-18.8,0.1c0-39.2-0.1-78.3,0-117.4c5.8,0,11.7,0,17.6,0
	c6.6-0.2,12.9,3.8,15.8,9.7C1811.1,153,1810.7,157.7,1810.7,162z"/>
<path class="st0" d="M43.5,167.9c-2.1-7.4,4.8-15.4,12.5-14.6c5.5-0.3,9.9,4.5,10.9,9.6c5.9,25.1,12.3,50,18.3,75.1
	c1.6,6.4,3,12.8,4.9,19c7.3-31.8,15.5-63.3,22.9-95c1.8-8.2,13-11.3,19.2-6.1c4.5,3.6,4.4,9.8,5.9,14.8c7,28.8,14,57.6,21.2,86.3
	c7.5-31.7,15.4-63.3,23-95c1.2-4.8,5.6-9,10.8-8.8c5.4-0.5,10.7,3.1,12.3,8.2c1.3,4.2-0.5,8.4-1.3,12.5c-11.1,46-22.2,92-33.3,137.9
	c-1.6,8.2-12.5,11.3-18.8,6.4c-4.3-3.1-4.7-8.7-5.9-13.4c-6.9-29.4-14.6-58.6-21.2-88c-2.7,9.6-4.8,19.4-7.2,29.1
	c-5.5,22-11,44-16.2,66.1c-1.4,7-9.8,10.5-16.1,7.7c-3.8-1.4-6.3-4.9-7.1-8.8C66.6,263.3,55,215.6,43.5,167.9z"/>
<path class="st0" d="M2089.1,272.9c-0.9-5.6-3-11-4.3-16.5c-12.5-45.3-25.1-90.7-37.6-136c-1-3.7-4.5-6.5-8.3-6.2
	c-3.9-0.2-7.4,2.9-8.1,6.7c-13.4,48.3-26.6,96.6-40,144.8c-1.1,4-3,8.9-0.2,12.6c3.5,5.1,12.8,4.3,14.7-1.8
	c3.2-10.2,5.7-20.7,8.5-31c16.8-0.3,33.6-0.2,50.4-0.1c2.3,9.9,5.3,19.6,8,29.4c0.7,2.5,2.2,5.1,4.8,6.1
	C2082.3,283.5,2089.9,279.2,2089.1,272.9z M2018.8,228.4c5.7-21.6,11.6-43.2,17.6-64.8c0.8-2.9,1.7-5.9,2.7-8.8
	c5.2,19.4,10.6,38.8,16,58.1c1.4,5.1,3.1,10.2,3.9,15.5C2045.6,228.4,2032.2,228.4,2018.8,228.4z"/>
<path class="st0" d="M2275.5,265.6c-13.3-48.2-26.6-96.4-39.9-144.6c-0.6-2.5-2.2-5-4.7-6c-4.4-2-10.5,0.2-11.6,5.2
	c-13.5,48.6-26.8,97.2-40.4,145.9c-1,3.7-2.9,7.9-0.7,11.5c3,5.5,12.4,5.6,15-0.4c3.6-10.4,5.6-21.3,8.9-31.8c16.7,0,33.4,0,50.1,0
	c2.8,10.5,5.5,21.1,8.9,31.5c2.4,6.4,12.2,6.3,15.2,0.6C2278.7,273.7,2276.4,269.4,2275.5,265.6z M2207.2,228.5
	c6.3-24.6,13.2-49.1,19.9-73.6c5.1,16,8.9,32.3,13.7,48.4c2.4,8.4,4.6,16.8,6.9,25.2C2234.2,228.5,2220.7,228.5,2207.2,228.5z"/>
<path class="st0" d="M703.3,266.4c-13.2-47.8-26.4-95.5-39.6-143.3c-0.9-4.3-4.4-7.8-8.8-8.6c-5.9-1.4-12.6,1.9-14.1,8
	c-12.8,45.8-25.3,91.7-37.9,137.6c-0.8,3-1.9,6-2.2,9.1c-0.6,6.1,4.3,12.1,10.5,12.5c5.7,0.9,11.4-3,12.9-8.5
	c2.5-8.5,4.3-17.3,7.2-25.7c13.9-0.5,27.9-0.1,41.8-0.2c1.9,7.2,4.1,14.4,5.9,21.7c0.9,3.1,1.7,6.5,4,9c4.5,4.9,13.4,4.9,17.7-0.3
	C703.6,274.7,704.2,270.3,703.3,266.4z M638.2,223.4c4-17.3,9.1-34.3,13.8-51.4c4.3,12.6,7.2,25.6,10.8,38.4c1.1,4.3,2.7,8.5,3,13
	C656.6,223.3,647.4,223.3,638.2,223.4z"/>
<path class="st0" d="M1125.8,266.8c-12.7-46.3-25.5-92.7-38.3-139c-0.9-3.3-1.5-6.9-3.7-9.6c-4.7-5.5-14.6-5.2-18.8,0.8
	c-1.9,3-2.4,6.6-3.4,9.9c-12,43.7-24.1,87.5-36.2,131.2c-1.5,4.9-3.5,10.6-0.8,15.4c3,6.1,11.5,8,17.1,4.4c3.5-2.1,4.9-6.2,5.9-10
	c1.8-7.6,3.9-15.2,6.1-22.7c14,0,27.9-0.1,41.9,0c2.3,8.5,4.8,16.9,7,25.4c1.4,6,7.8,10.2,13.9,8.8
	C1123.1,280.5,1127.7,273.2,1125.8,266.8z M1061.1,223.4c0.2-5.2,2.2-9.9,3.4-14.8c3.5-12.2,6.1-24.7,10.4-36.6
	c4.6,17.1,9.5,34.1,13.8,51.3C1079.5,223.3,1070.3,223.2,1061.1,223.4z"/>
<path class="st1" d="M259.7,174.2c3.1,0.3,6.1,1.1,9.1,2c26.7,7.3,53.5,14.3,80.2,21.8c-21.1,5.9-42.3,11.4-63.4,17.2
	c-8.6,2.1-17.1,4.9-25.8,6.7C259.7,206,259.8,190.1,259.7,174.2z"/>
<path class="st0" d="M218.4,235.4c9.2-2.7,19.8-1.4,27.5,4.6c3.3,2.7,6.4,5.9,8.3,9.7c1.9,4.1-1.5,9.6-6.2,9
	c-3.6,0.3-5.2-3.4-7.2-5.7c-5.8-7.4-17.7-8-24.6-1.8c-7.7,6.2-7.6,19.1-0.3,25.6c8.4,8.6,16.9,17.2,25.2,25.9
	c3.5,3.9,7.6,7.2,10.2,11.8c5.7,9.5,5.7,22.2,0,31.7c-6.1,10.7-19.1,16.8-31.3,14.9c-9.4-1.3-18.3-7.1-22.7-15.6
	c-2.1-3.9,1.2-9.6,5.8-9.2c3.6-0.5,5.4,2.9,7.3,5.3c3.1,4.3,8.4,6.8,13.6,6.9c6.8,0.4,13.5-3.8,16.8-9.7c3.9-7.3,2.1-17-4.2-22.4
	c-8-8-15.8-16.2-23.7-24.3c-4.1-4.6-9.2-8.4-12-14c-6.1-11.7-3.4-27.2,6.4-35.9C210.4,239.2,214.3,236.8,218.4,235.4z"/>
</svg>
