<?xml version="1.0" encoding="utf-8"?>
<!-- Generator: Adobe Illustrator 19.1.1, SVG Export Plug-In . SVG Version: 6.00 Build 0)  -->
<svg version="1.1" id="Layer_1" xmlns="http://www.w3.org/2000/svg" xmlns:xlink="http://www.w3.org/1999/xlink" x="0px" y="0px"
	 width="133.9px" height="59.5px" viewBox="0 0 133.9 59.5" style="enable-background:new 0 0 133.9 59.5;" xml:space="preserve">
<style type="text/css">
	.st0{fill:#FFFFFF;}
	.st1{fill:#FF5800;}
</style>
<path class="st0" d="M29.8,2.7C14.8,2.7,2.7,14.9,2.7,29.8c0,14.9,12.1,27.1,27.1,27.1c14.9,0,27.1-12.1,27.1-27.1
	C56.8,14.9,44.7,2.7,29.8,2.7 M29.8,59.5C13.4,59.5,0,46.2,0,29.8C0,13.4,13.4,0,29.8,0c16.4,0,29.8,13.4,29.8,29.8
	C59.5,46.2,46.2,59.5,29.8,59.5"/>
<polygon class="st1" points="52.4,29.8 39.1,26.2 39.1,33.4 "/>
<path class="st0" d="M32.1,20.7c-0.5-1-1-2.1-1.5-3.2c-0.9-1.8-2.1-4.2-3.1-6.3l0,9c0,0.7-0.5,1.2-1.2,1.2c-0.7,0-1.2-0.5-1.2-1.2
	l0-14c0-0.6,0.3-1,0.9-1.1c0.6-0.1,1,0.1,1.3,0.6c0.5,1,1,2.1,1.5,3.2c0.9,1.8,2,4.2,3.1,6.3l0-9C32,5.5,32.5,5,33.2,5
	c0.7,0,1.2,0.5,1.2,1.2l0,14c0,0.6-0.4,1-0.9,1.1C32.9,21.5,32.3,21.2,32.1,20.7"/>
<path class="st0" d="M10,24.4c0.4,1.6,0.7,3.2,1.2,4.8c0.7,2.8,1.6,6.4,2.3,9.6c0.7-3.2,1.6-6.7,2.3-9.6c0.4-1.6,0.8-3.2,1.2-4.8
	c0.2-0.9,0.9-1.4,1.7-1.4c0.9,0,1.5,0.5,1.7,1.4c0.4,1.6,0.7,3.2,1.2,4.8c0.7,2.8,1.6,6.4,2.3,9.6c0.7-3.2,1.6-6.7,2.3-9.6
	c0.4-1.6,0.8-3.2,1.2-4.8c0.3-1,1.1-1.6,2.2-1.3c1,0.3,1.6,1.2,1.3,2.2l-5.2,21.6c-0.2,0.9-0.9,1.4-1.7,1.4c-0.9,0-1.6-0.5-1.7-1.4
	c-0.4-1.6-0.7-3.2-1.2-4.8c-0.7-2.8-1.6-6.3-2.3-9.6c-0.8,3.2-1.6,6.7-2.3,9.6c-0.4,1.6-0.8,3.2-1.2,4.8c-0.2,0.9-0.9,1.4-1.7,1.4
	c-0.9,0-1.6-0.5-1.7-1.4L6.6,25.3c-0.3-0.9,0.4-1.9,1.3-2.2C8.9,22.8,9.8,23.4,10,24.4"/>
<path class="st0" d="M36.5,49.9c0.1-0.8-0.2-1.6-0.8-2.1L31,42.9c-0.9-0.9-1.4-2.2-1.2-3.5c0.1-1.3,0.7-2.5,1.8-3.3
	c1-0.8,2.3-1.1,3.6-0.8c1.3,0.3,2.3,1,3,2.2c0.3,0.4,0.1,1-0.4,1.3c-0.4,0.3-1,0.1-1.3-0.4c-0.4-0.7-1-1.1-1.8-1.2
	c-0.8-0.1-1.5,0-2.1,0.5c-0.6,0.4-1,1.1-1,1.9c-0.1,0.8,0.2,1.5,0.7,2l4.8,4.9c0.9,1,1.4,2.3,1.3,3.6c-0.1,1.3-0.8,2.6-1.8,3.4
	c-1.1,0.8-2.4,1.1-3.7,0.9c-1.3-0.3-2.4-1.1-3.1-2.2c-0.2-0.5-0.1-1,0.4-1.3c0.4-0.3,1-0.1,1.3,0.4c0.4,0.7,1,1.2,1.8,1.3
	c0.8,0.1,1.5,0,2.2-0.5C36.1,51.4,36.4,50.7,36.5,49.9"/>
<path class="st0" d="M74.3,14.3c-0.4-1-0.9-1.9-1.4-2.9c-0.8-1.7-1.9-3.8-2.8-5.7l0,8.2c0,0.6-0.5,1.1-1.1,1.1
	c-0.6,0-1.1-0.5-1.1-1.1l0-12.8c0-0.5,0.3-0.9,0.8-1c0.5-0.1,1,0.1,1.2,0.6c0.4,0.9,0.9,1.9,1.4,2.9c0.8,1.7,1.8,3.8,2.8,5.7l0-8.2
	c0-0.6,0.5-1.1,1.1-1.1c0.6,0,1.1,0.5,1.1,1.1l0,12.8c0,0.5-0.4,0.9-0.8,1C75,15,74.5,14.8,74.3,14.3"/>
<path class="st0" d="M82.9,5.1c-0.4,1.4-0.9,3.1-1.3,4.7l2.6,0C83.8,8.2,83.3,6.5,82.9,5.1 M86.7,14.9c-0.6,0.2-1.1-0.2-1.3-0.7
	c-0.1-0.2-0.1-0.4-0.2-0.6c-0.1-0.4-0.3-1-0.5-1.7l-3.8,0c-0.2,0.7-0.4,1.3-0.5,1.7c-0.1,0.2-0.1,0.5-0.2,0.6
	c-0.2,0.6-0.7,0.9-1.3,0.7c-0.6-0.2-0.9-0.7-0.7-1.3l3.5-12.8C82,0.3,82.4,0,82.9,0c0.5,0,0.9,0.3,1,0.8l3.5,12.8
	C87.6,14.2,87.3,14.7,86.7,14.9"/>
<path class="st0" d="M95.1,1.2c0,0.6-0.5,1.1-1.1,1.1l-1.8,0l0,11.7c0,0.6-0.5,1.1-1.1,1.1c-0.6,0-1.1-0.5-1.1-1.1l0-11.7l-1.8,0
	c-0.6,0-1.1-0.5-1.1-1.1c0-0.6,0.5-1.1,1.1-1.1l5.7,0C94.6,0.1,95.1,0.6,95.1,1.2"/>
<path class="st0" d="M100.5,12.8c0.9,0,1.6-0.7,1.6-1.6l0-10.2c0-0.6,0.5-1.1,1.1-1.1c0.6,0,1.1,0.5,1.1,1.1l0,10.2
	c0,2.1-1.7,3.7-3.7,3.7c-2.1,0-3.7-1.7-3.7-3.7l0-10.2c0-0.6,0.5-1.1,1.1-1.1c0.6,0,1.1,0.5,1.1,1.1l0,10.2
	C98.9,12.1,99.6,12.8,100.5,12.8"/>
<path class="st0" d="M110.6,6.6c0.9,0,1.6-0.7,1.6-1.6l0-1.2c0-0.9-0.7-1.6-1.6-1.6l-1.6,0l0,4.4L110.6,6.6z M112.4,8.3l1.9,5.2
	c0.2,0.6-0.1,1.2-0.6,1.4c-0.6,0.2-1.1-0.1-1.4-0.6l-2.1-5.5l-1.2,0l0,5.1c0,0.6-0.5,1.1-1.1,1.1c-0.6,0-1.1-0.5-1.1-1.1l0-12.7
	c0-0.6,0.5-1.1,1.1-1.1l2.6,0c2.1,0,3.7,1.7,3.7,3.7l0,1.2C114.4,6.5,113.6,7.7,112.4,8.3"/>
<path class="st0" d="M120.6,5.1c-0.4,1.4-0.9,3.1-1.3,4.7l2.6,0C121.5,8.2,121,6.5,120.6,5.1 M124.4,14.9c-0.6,0.2-1.1-0.2-1.3-0.7
	c-0.1-0.2-0.1-0.4-0.2-0.6c-0.1-0.4-0.3-1-0.5-1.7l-3.8,0c-0.2,0.7-0.4,1.3-0.5,1.7c-0.1,0.2-0.1,0.5-0.2,0.6
	c-0.2,0.6-0.7,0.9-1.3,0.7c-0.6-0.2-0.9-0.7-0.7-1.3l3.5-12.8c0.1-0.5,0.5-0.8,1-0.8s0.9,0.3,1,0.8l3.5,12.8
	C125.3,14.2,125,14.7,124.4,14.9"/>
<path class="st0" d="M127.4,13.8l0-12.7c0-0.6,0.5-1.1,1.1-1.1c0.6,0,1.1,0.5,1.1,1.1l0,11.7l3.4,0c0.6,0,1.1,0.5,1.1,1.1
	c0,0.6-0.5,1.1-1.1,1.1l-4.4,0C127.8,14.8,127.4,14.4,127.4,13.8"/>
<path class="st0" d="M69.6,19.5c0.3,1.2,0.6,2.5,0.9,3.8c0.6,2.2,1.2,5.1,1.9,7.6c0.6-2.5,1.3-5.3,1.8-7.6c0.3-1.3,0.6-2.6,0.9-3.8
	c0.1-0.7,0.7-1.1,1.4-1.1s1.2,0.4,1.4,1.1c0.3,1.2,0.6,2.5,0.9,3.8c0.6,2.2,1.2,5.1,1.9,7.6c0.6-2.5,1.3-5.3,1.8-7.6
	c0.3-1.3,0.6-2.6,0.9-3.8c0.2-0.8,0.9-1.3,1.7-1.1c0.8,0.2,1.2,1,1,1.7L82,37.2c-0.1,0.7-0.7,1.1-1.4,1.1c-0.7,0-1.2-0.4-1.4-1.1
	c-0.3-1.2-0.6-2.5-0.9-3.8c-0.6-2.2-1.2-5-1.8-7.6c-0.6,2.6-1.3,5.3-1.9,7.6c-0.3,1.3-0.6,2.6-0.9,3.8c-0.1,0.7-0.7,1.1-1.4,1.1
	c-0.7,0-1.2-0.4-1.4-1.1l-4.1-17.1c-0.2-0.7,0.3-1.5,1-1.7C68.7,18.3,69.4,18.7,69.6,19.5"/>
<path class="st0" d="M90.9,23.4l0,10c0,1.2,0.9,2.1,2.1,2.1c1.2,0,2.1-0.9,2.1-2.1l0-10c0-1.2-0.9-2.1-2.1-2.1
	C91.8,21.3,90.9,22.2,90.9,23.4 M88,33.4l0-10c0-2.7,2.2-4.9,4.9-4.9c2.7,0,4.9,2.2,4.9,4.9l0,10c0,2.7-2.2,4.9-4.9,4.9
	C90.2,38.3,88,36.1,88,33.4"/>
<path class="st0" d="M105.6,27.3c1.2,0,2.1-0.9,2.1-2.1l0-1.7c0-1.2-0.9-2.1-2.1-2.1l-2.1,0l0,5.9L105.6,27.3z M107.9,29.5l2.6,6.9
	c0.3,0.7-0.1,1.6-0.8,1.8c-0.7,0.3-1.5-0.1-1.8-0.8l-2.7-7.3l-1.6,0l0,6.8c0,0.8-0.6,1.4-1.4,1.4c-0.8,0-1.4-0.6-1.4-1.4l0-17
	c0-0.8,0.6-1.4,1.4-1.4l3.5,0c2.7,0,4.9,2.2,4.9,4.9l0,1.7C110.5,27.1,109.5,28.7,107.9,29.5"/>
<path class="st0" d="M113.2,36.8l0-17c0-0.8,0.6-1.4,1.4-1.4c0.8,0,1.4,0.6,1.4,1.4l0,15.5l4.5,0c0.8,0,1.4,0.6,1.4,1.4
	c0,0.8-0.6,1.4-1.4,1.4l-5.9,0C113.9,38.2,113.2,37.6,113.2,36.8"/>
<path class="st0" d="M129,21.4l-2.1,0l0,14l2.1,0c1.2,0,2.1-0.9,2.1-2.1l0-9.8C131.1,22.3,130.2,21.4,129,21.4 M133.9,23.5l0,9.8
	c0,2.7-2.2,4.9-4.9,4.9l-3.5,0c-0.8,0-1.4-0.6-1.4-1.4l0-16.8c0-0.8,0.6-1.4,1.4-1.4l3.5,0C131.7,18.5,133.9,20.8,133.9,23.5"/>
<path class="st0" d="M74.3,55.4c0.1-0.7-0.2-1.5-0.7-2l-4.4-4.5c-0.9-0.9-1.3-2-1.2-3.2c0.1-1.2,0.7-2.3,1.7-3c1-0.7,2.2-1,3.4-0.8
	c1.2,0.2,2.1,0.9,2.8,2c0.2,0.4,0.1,1-0.3,1.2c-0.4,0.2-1,0.1-1.2-0.3c-0.4-0.6-0.9-1-1.6-1.2c-0.7-0.1-1.4,0-2,0.4
	c-0.6,0.4-0.9,1-0.9,1.7c-0.1,0.7,0.2,1.3,0.7,1.9l4.4,4.5c0.9,0.9,1.3,2.1,1.2,3.3c-0.1,1.2-0.7,2.4-1.7,3.1c-1,0.7-2.3,1-3.5,0.8
	c-1.2-0.2-2.3-1-2.9-2.1c-0.2-0.4-0.1-1,0.3-1.2c0.4-0.2,1-0.1,1.2,0.3c0.4,0.6,1,1.1,1.7,1.2c0.7,0.1,1.4,0,2-0.5
	C73.9,56.8,74.2,56.2,74.3,55.4"/>
<path class="st0" d="M82.7,46c-0.6,2-1.4,5.2-2.2,7.9l4.3,0C84.2,51.2,83.3,48,82.7,46 M87.4,59.5c-0.5,0.1-0.9-0.1-1.1-0.6
	c-0.1-0.3-0.2-0.6-0.2-0.9c-0.2-0.6-0.4-1.3-0.6-2.3l-5.3,0c-0.3,1-0.4,1.7-0.6,2.3c-0.1,0.3-0.2,0.6-0.2,0.9
	c-0.1,0.5-0.6,0.7-1.1,0.6c-0.5-0.1-0.7-0.6-0.6-1.1l4.4-16c0.1-0.4,0.4-0.7,0.9-0.7c0.4,0,0.7,0.2,0.9,0.7l4.4,16
	C88.1,58.9,87.9,59.4,87.4,59.5"/>
<path class="st0" d="M90.3,58.5l0-15.7c0-0.5,0.4-0.9,0.9-0.9l5.5,0c0.5,0,0.9,0.4,0.9,0.9c0,0.5-0.4,0.9-0.9,0.9l-4.6,0l0,5.8
	l4.1,0c0.5,0,0.9,0.4,0.9,0.9s-0.4,0.9-0.9,0.9l-4.1,0l0,7.3c0,0.5-0.4,0.9-0.9,0.9C90.7,59.4,90.3,59.1,90.3,58.5"/>
<path class="st0" d="M102.7,46c-0.6,2-1.4,5.2-2.2,7.9l4.3,0C104.1,51.2,103.2,48,102.7,46 M107.3,59.5c-0.5,0.1-0.9-0.1-1.1-0.6
	c-0.1-0.3-0.2-0.6-0.2-0.9c-0.2-0.6-0.4-1.3-0.6-2.3l-5.3,0c-0.3,1-0.4,1.7-0.6,2.3c-0.1,0.3-0.2,0.6-0.2,0.9
	c-0.1,0.5-0.6,0.7-1.1,0.6c-0.5-0.1-0.7-0.6-0.6-1.1l4.4-16c0.1-0.4,0.4-0.7,0.9-0.7c0.4,0,0.7,0.2,0.9,0.7l4.4,16
	C108.1,58.9,107.8,59.4,107.3,59.5"/>
<path class="st0" d="M116.7,47.6l0-1.5c0-1.3-1.1-2.4-2.4-2.4l-2.4,0l0,6.4l2.4,0C115.6,50.1,116.7,49,116.7,47.6 M115.9,51.5
	l2.5,6.8c0.2,0.4-0.1,0.9-0.5,1.1c-0.4,0.2-0.9-0.1-1.1-0.5l-2.6-7.1l-2.3,0l0,6.8c0,0.5-0.4,0.9-0.9,0.9c-0.5,0-0.9-0.4-0.9-0.9
	l0-15.8c0-0.5,0.4-0.9,0.9-0.9l3.3,0c2.3,0,4.2,1.9,4.2,4.2l0,1.5C118.4,49.4,117.4,50.9,115.9,51.5"/>
<path class="st0" d="M121.2,58.7l0-16c0-0.5,0.4-0.9,0.9-0.9c0.5,0,0.9,0.4,0.9,0.9l0,16c0,0.5-0.4,0.9-0.9,0.9
	C121.7,59.5,121.2,59.2,121.2,58.7"/>
<path class="st0" d="M132.2,55.4c0.1-0.7-0.2-1.5-0.7-2l-4.4-4.5c-0.9-0.9-1.3-2-1.2-3.2c0.1-1.2,0.7-2.3,1.7-3c1-0.7,2.2-1,3.4-0.8
	c1.2,0.2,2.1,0.9,2.8,2c0.2,0.4,0.1,1-0.3,1.2c-0.4,0.2-1,0.1-1.2-0.3c-0.4-0.6-0.9-1-1.6-1.2c-0.7-0.1-1.4,0-2,0.4
	c-0.6,0.4-0.9,1-0.9,1.7c-0.1,0.7,0.2,1.3,0.7,1.9l4.4,4.5c0.9,0.9,1.3,2.1,1.2,3.3c-0.1,1.2-0.7,2.4-1.7,3.1c-1,0.7-2.3,1-3.5,0.8
	c-1.2-0.2-2.3-1-2.9-2.1c-0.2-0.4-0.1-1,0.3-1.2c0.4-0.2,1-0.1,1.2,0.3c0.4,0.6,1,1.1,1.7,1.2c0.7,0.1,1.4,0,2-0.5
	C131.8,56.8,132.1,56.2,132.2,55.4"/>
</svg>
